<?xml version="1.0" encoding="UTF-8"?>
<svg version="1.1" xmlns="http://www.w3.org/2000/svg" width="595" height="512">
<path d="M0 0 C196.35 0 392.7 0 595 0 C595 168.96 595 337.92 595 512 C398.65 512 202.3 512 0 512 C0 343.04 0 174.08 0 0 Z " fill="#fff" transform="translate(0,0)"/>
<path d="M0 0 C93.06 0 186.12 0 282 0 C282 168.96 282 337.92 282 512 C190.92 512 99.84 512 6 512 C6 511.34 6 510.68 6 510 C7.22976563 509.87882812 8.45953125 509.75765625 9.7265625 509.6328125 C11.3594118 509.46389705 12.99222232 509.29460636 14.625 509.125 C15.43324219 509.04636719 16.24148438 508.96773438 17.07421875 508.88671875 C21.65207069 508.40288074 25.65154079 507.59105432 30 506 C31.41053235 505.69884619 32.82773094 505.42717867 34.25 505.1875 C44.69898194 503.17381152 55.50470479 500.56514296 65.109375 495.9140625 C69.23092691 493.92141137 73.3802215 492 78 492 C78 491.34 78 490.68 78 490 C79.155 489.5875 80.31 489.175 81.5 488.75 C85.24529038 487.35965242 88.72797818 485.67064874 92.23828125 483.76953125 C94 483 94 483 97 483 C97 482.34 97 481.68 97 481 C101.27113698 478.81673892 105.50202887 476.68673918 110 475 C110 474.34 110 473.68 110 473 C119.41002278 467.62870159 119.41002278 467.62870159 124 466 C124 465.34 124 464.68 124 464 C125.32 463.67 126.64 463.34 128 463 C128 462.34 128 461.68 128 461 C129.65 460.67 131.3 460.34 133 460 C133.33 459.01 133.66 458.02 134 457 C134.66 457 135.32 457 136 457 C136.33 456.01 136.66 455.02 137 454 C138.66666667 453.33333333 140.33333333 452.66666667 142 452 C142.33 451.01 142.66 450.02 143 449 C144.70703125 447.31640625 144.70703125 447.31640625 146.8125 445.5625 C149.11265868 443.62032666 151.27115592 441.7217084 153.375 439.5625 C155 438 155 438 157 438 C157.33 437.01 157.66 436.02 158 435 C158.66 435 159.32 435 160 435 C160.25007812 434.41992188 160.50015625 433.83984375 160.7578125 433.2421875 C162.16379834 430.70433885 163.76421928 429.10833736 165.875 427.125 C168.36998148 424.71137661 170.53261462 422.44502512 172.375 419.5 C173.179375 418.2625 173.179375 418.2625 174 417 C174.66 417 175.32 417 176 417 C176.33 416.01 176.66 415.02 177 414 C177.66 414 178.32 414 179 414 C179.33 412.35 179.66 410.7 180 409 C180.66 409 181.32 409 182 409 C182.33 407.68 182.66 406.36 183 405 C183.66 405 184.32 405 185 405 C185.23589844 404.32195312 185.47179687 403.64390625 185.71484375 402.9453125 C187.30171364 399.30853471 189.36752785 396.169192 191.5625 392.875 C194.73492989 388.17686034 194.73492989 388.17686034 197 383 C197.66 383 198.32 383 199 383 C199.33 381.35 199.66 379.7 200 378 C200.66 378 201.32 378 202 378 C202.11988281 377.26523437 202.23976563 376.53046875 202.36328125 375.7734375 C202.99134591 373.03769575 203.85599911 371.08116669 205.1875 368.625 C208.63433187 361.95113424 211.29353118 354.99759474 214 348 C214.31066406 347.20078125 214.62132812 346.4015625 214.94140625 345.578125 C216.77903021 340.76759106 218.41949131 335.89957695 220 331 C220.33257813 329.98550781 220.66515625 328.97101563 221.0078125 327.92578125 C222.99726937 321.69951808 224.59335474 315.60503469 225.60546875 309.14453125 C226 307 226 307 227 305 C230.11732045 290.13602784 230.47592219 275.02903989 230.39111328 259.90478516 C230.37501194 256.50252215 230.39107834 253.1014465 230.41015625 249.69921875 C230.42786914 231.01684698 228.84294238 213.01997404 223.57226562 195.05175781 C222.89593863 192.62690623 222.29657367 190.18863151 221.703125 187.7421875 C221.48253418 186.83291504 221.26194336 185.92364258 221.03466797 184.98681641 C220.60294724 183.19570265 220.17474621 181.40373596 219.75048828 179.61083984 C219.55181152 178.79566895 219.35313477 177.98049805 219.1484375 177.140625 C218.97489746 176.41391602 218.80135742 175.68720703 218.62255859 174.93847656 C218.00447901 172.7101986 218.00447901 172.7101986 216 170 C215.45927731 168.55627042 214.96184105 167.09586334 214.5 165.625 C213.68169443 163.06623742 212.8392721 160.6108693 211.8125 158.125 C211 156 211 156 211 153 C210.34 153 209.68 153 209 153 C208.67 151.02 208.34 149.04 208 147 C207.34 147 206.68 147 206 147 C205.69707031 146.2265625 205.39414062 145.453125 205.08203125 144.65625 C202.78499302 138.94545957 200.45076396 133.67570844 196.91796875 128.62109375 C196 127 196 127 196 124 C195.34 124 194.68 124 194 124 C193.68546875 123.40832031 193.3709375 122.81664063 193.046875 122.20703125 C190.65559003 117.79179725 188.18824641 113.89674562 185 110 C185 109.34 185 108.68 185 108 C184.34 108 183.68 108 183 108 C182.67 106.35 182.34 104.7 182 103 C181.34 103 180.68 103 180 103 C176 98.64705882 176 98.64705882 176 95 C175.01 94.67 174.02 94.34 173 94 C173 93.34 173 92.68 173 92 C172.01 91.67 171.02 91.34 170 91 C169.33333333 89.33333333 168.66666667 87.66666667 168 86 C167.01 85.67 166.02 85.34 165 85 C163.3515625 83.328125 163.3515625 83.328125 161.625 81.25 C158.07531905 77.07390477 154.52791416 73.18837768 150.1875 69.8125 C149.465625 69.214375 148.74375 68.61625 148 68 C148 67.34 148 66.68 148 66 C147.01 65.67 146.02 65.34 145 65 C145 64.34 145 63.68 145 63 C144.195625 62.731875 143.39125 62.46375 142.5625 62.1875 C141.716875 61.795625 140.87125 61.40375 140 61 C139.67 60.01 139.34 59.02 139 58 C138.01 57.67 137.02 57.34 136 57 C136 56.34 136 55.68 136 55 C135.2575 54.9175 134.515 54.835 133.75 54.75 C130.44300369 53.84809192 129.31547635 52.46486192 127 50 C124.86690808 48.76487921 124.86690808 48.76487921 123 48 C123 47.34 123 46.68 123 46 C121.02 45.505 121.02 45.505 119 45 C119 44.34 119 43.68 119 43 C118.195625 42.79375 117.39125 42.5875 116.5625 42.375 C112.66422067 40.87040096 109.65455182 38.87681457 106.23046875 36.51953125 C101.09785442 33.02288156 95.7412604 30.34337159 90 28 C90 27.34 90 26.68 90 26 C88.02 25.67 86.04 25.34 84 25 C84 24.34 84 23.68 84 23 C82.989375 22.896875 81.97875 22.79375 80.9375 22.6875 C76.78781792 21.96295233 73.78643737 20.77730734 70 19 C70 18.34 70 17.68 70 17 C68.865625 16.896875 67.73125 16.79375 66.5625 16.6875 C62.7636416 16.20604746 59.42315786 15.23204807 55.82421875 13.95703125 C52.03890406 12.67431742 48.21113479 11.55745508 44.375 10.4375 C43.65836182 10.22770508 42.94172363 10.01791016 42.20336914 9.80175781 C40.80096516 9.39233929 39.39797519 8.98492225 37.99438477 8.57958984 C36.15558085 8.04521348 34.32167048 7.49407419 32.48828125 6.94140625 C28.61665713 5.89654464 24.76363595 5.16387038 20.8125 4.5 C20.07652588 4.37326904 19.34055176 4.24653809 18.58227539 4.1159668 C16.38890639 3.73955884 14.19465915 3.36880364 12 3 C10.75476563 2.78988281 9.50953125 2.57976562 8.2265625 2.36328125 C5.48511128 1.90420213 2.74307617 1.4492514 0 1 C0 0.67 0 0.34 0 0 Z " fill="#172150" transform="translate(313,0)"/>
<path d="M0 0 C88.44 0 176.88 0 268 0 C264.92430781 2.05046146 263.89363086 2.30121801 260.359375 2.5625 C259.45316406 2.63726562 258.54695313 2.71203125 257.61328125 2.7890625 C256.19595703 2.89347656 256.19595703 2.89347656 254.75 3 C248.55878877 3.46369682 242.95335031 4.11393255 237 6 C234.8585113 6.47822202 232.71242101 6.93624061 230.5625 7.375 C225.12487459 8.52436932 219.71181895 9.7445124 214.3125 11.0625 C213.62937744 11.22476074 212.94625488 11.38702148 212.24243164 11.55419922 C209.00930835 12.35506089 206.80597296 13.12935136 204 15 C202.63868467 15.49750881 201.26146095 15.9526015 199.875 16.375 C195.07482123 17.92890403 190.57069267 19.87237948 186 22 C184.76954115 22.56903182 183.53907154 23.13804038 182.30859375 23.70703125 C174.96191399 27.09283515 174.96191399 27.09283515 167.73046875 30.71484375 C165 32 165 32 162 32 C162 32.66 162 33.32 162 34 C161.01 34 160.02 34 159 34 C159 34.66 159 35.32 159 36 C157.05012739 37.34648215 155.03700593 38.60187034 153 39.8125 C151.80577502 40.52698524 150.61176428 41.24182869 149.41796875 41.95703125 C148.29003906 42.63121094 147.16210938 43.30539063 146 44 C144.4345301 44.99534429 142.87137897 45.99436458 141.3125 47 C138 49 138 49 136 49 C135.67 49.99 135.34 50.98 135 52 C134.01 52 133.02 52 132 52 C132 52.66 132 53.32 132 54 C130.5390625 55.5078125 130.5390625 55.5078125 128.625 57.125 C127.99851562 57.66382813 127.37203125 58.20265625 126.7265625 58.7578125 C125 60 125 60 123 60 C123 60.66 123 61.32 123 62 C122.0409375 62.433125 122.0409375 62.433125 121.0625 62.875 C118.84793921 63.82823451 118.84793921 63.82823451 118 66 C117.01 66 116.02 66 115 66 C114.505 67.485 114.505 67.485 114 69 C113.34 69 112.68 69 112 69 C111.505 70.485 111.505 70.485 111 72 C110.34 72 109.68 72 109 72 C109 72.66 109 73.32 109 74 C107.625 75.625 107.625 75.625 106 77 C105.34 77 104.68 77 104 77 C103.505 78.485 103.505 78.485 103 80 C102.34 80 101.68 80 101 80 C100.505 81.485 100.505 81.485 100 83 C99.34 83 98.68 83 98 83 C98 83.99 98 84.98 98 86 C96.625 87.6875 96.625 87.6875 95 89 C94.34 89 93.68 89 93 89 C92.773125 89.70125 92.54625 90.4025 92.3125 91.125 C90.66158712 94.74128535 88.7091165 97.08769976 86 100 C85.34 100 84.68 100 84 100 C83.505 101.98 83.505 101.98 83 104 C82.34 104 81.68 104 81 104 C80.71125 104.763125 80.4225 105.52625 80.125 106.3125 C79 109 79 109 77 112 C76.34 112 75.68 112 75 112 C74.89558594 112.71542969 74.79117188 113.43085937 74.68359375 114.16796875 C73.92477733 117.31163677 72.73506294 119.55215773 71.0625 122.3125 C70.53785156 123.19550781 70.01320313 124.07851562 69.47265625 124.98828125 C68.98667969 125.65214844 68.50070313 126.31601563 68 127 C67.34 127 66.68 127 66 127 C66 127.99 66 128.98 66 130 C65.34 130 64.68 130 64 130 C63.896875 130.886875 63.79375 131.77375 63.6875 132.6875 C62.98284093 136.0826755 62.0445434 138.21942098 60 141 C59.34 141 58.68 141 58 141 C57.9175 142.010625 57.835 143.02125 57.75 144.0625 C57.25588401 147.58581909 55.87614395 149.97390872 54.06054688 153.03100586 C52.22403341 156.440647 51.08506343 160.081395 49.875 163.75 C49.37630038 165.24609885 48.87383792 166.74094993 48.3671875 168.234375 C48.15175293 168.88631836 47.93631836 169.53826172 47.71435547 170.20996094 C47 172 47 172 45 175 C44.51864275 176.78789837 44.04838312 178.57939226 43.62890625 180.3828125 C42.84370722 183.65041094 41.94872644 186.88336563 41.0625 190.125 C39.12948416 197.37224691 37.31348394 204.61036001 36 212 C35.86174805 212.7616748 35.72349609 213.52334961 35.58105469 214.30810547 C28.97759736 252.47549258 32.26821696 292.03103405 43.17578125 328.99609375 C43.95305813 331.82891802 44.17679643 334.08285887 44 337 C44.66 337 45.32 337 46 337 C46.23074219 337.89460938 46.46148437 338.78921875 46.69921875 339.7109375 C48.53410131 346.51378272 50.55209286 352.74556149 54.046875 358.9140625 C55 361 55 361 55 365 C55.66 365 56.32 365 57 365 C57.33 366.98 57.66 368.96 58 371 C58.66 371 59.32 371 60 371 C60.23074219 371.56847656 60.46148437 372.13695312 60.69921875 372.72265625 C62.39583363 376.73954285 64.09691182 380.33551833 66.75 383.8125 C69 387 69 387 69 391 C69.66 391 70.32 391 71 391 C75 397.75 75 397.75 75 400 C75.66 400 76.32 400 77 400 C77.33 401.32 77.66 402.64 78 404 C78.66 404 79.32 404 80 404 C81.47265625 405.828125 81.47265625 405.828125 83.0625 408.25 C83.58972656 409.03890625 84.11695312 409.8278125 84.66015625 410.640625 C86 413 86 413 86.49609375 415.234375 C86.74552734 416.10835938 86.74552734 416.10835938 87 417 C87.99 417.33 88.98 417.66 90 418 C90 418.66 90 419.32 90 420 C90.66 420 91.32 420 92 420 C95 423.46153846 95 423.46153846 95 426 C95.99 426.33 96.98 426.66 98 427 C98 427.66 98 428.32 98 429 C98.99 429.33 99.98 429.66 101 430 C101.6875 432.0625 101.6875 432.0625 102 434 C102.59683594 434.09410156 103.19367188 434.18820312 103.80859375 434.28515625 C106.49238421 435.16061731 107.34269679 436.23156574 109.0625 438.4375 C111.01068086 440.91277489 112.30632886 442.20421924 115 444 C115 444.66 115 445.32 115 446 C115.99 446.33 116.98 446.66 118 447 C118 447.66 118 448.32 118 449 C119.2065625 449.4021875 119.2065625 449.4021875 120.4375 449.8125 C121.283125 450.204375 122.12875 450.59625 123 451 C123.495 452.485 123.495 452.485 124 454 C124.99 454.33 125.98 454.66 127 455 C127 455.66 127 456.32 127 457 C127.5775 457.103125 128.155 457.20625 128.75 457.3125 C131.35661158 458.10896465 132.9735311 459.19065277 135 461 C135 461.66 135 462.32 135 463 C136.32 463.33 137.64 463.66 139 464 C139 464.66 139 465.32 139 466 C139.55558594 466.0928125 140.11117187 466.185625 140.68359375 466.28125 C143.61071234 467.1894959 145.59810871 468.68608907 148.0625 470.5 C150.79098097 472.5022537 152.7783531 473.9261177 156 475 C156 475.66 156 476.32 156 477 C156.73734375 477.11730469 157.4746875 477.23460937 158.234375 477.35546875 C160.99314308 477.99840199 162.83377208 478.86723775 165.25 480.3125 C169.70201049 482.88643548 174.26756523 484.99738576 179 487 C179 487.66 179 488.32 179 489 C180.98 489.33 182.96 489.66 185 490 C185 490.66 185 491.32 185 492 C185.9075 492.061875 186.815 492.12375 187.75 492.1875 C191.17532523 492.67489806 193.9721166 493.77818822 197.125 495.1875 C205.32696024 498.74820043 213.8961489 500.96942376 222.50976562 503.31103516 C224.67848932 503.91104871 226.83204369 504.54341295 228.984375 505.19921875 C237.15000812 507.59720489 244.99759028 508.70512014 253.47680664 509.31738281 C254.29528076 509.38022461 255.11375488 509.44306641 255.95703125 509.5078125 C257.05494995 509.57959717 257.05494995 509.57959717 258.17504883 509.65283203 C260 510 260 510 262 512 C175.54 512 89.08 512 0 512 C0 343.04 0 174.08 0 0 Z " fill="#172150" transform="translate(0,0)"/>
<path d="M0 0 C1.35303223 0.09087891 1.35303223 0.09087891 2.73339844 0.18359375 C35.47223471 2.32823911 67.76714427 2.54169528 100.51171875 0.4375 C106.02570408 0.08857397 111.47658812 -0.09918585 117 0 C119.01839524 5.04598811 120.52717637 9.88020899 121.5703125 15.21484375 C121.83876694 17.01276612 121.83876694 17.01276612 123 18 C123.49601715 20.45618131 123.94897424 22.90656485 124.375 25.375 C125.24053435 30.26795184 126.21641641 34.99512318 127.6875 39.75 C129.36807874 45.50073039 129.28016622 51.05425022 129 57 C128.01 57.33 127.02 57.66 126 58 C126 63.61 126 69.22 126 75 C126.66 75 127.32 75 128 75 C128.33 76.98 128.66 78.96 129 81 C129.66 81 130.32 81 131 81 C133.32113545 83.11632938 134.78019142 84.88587219 135.3984375 88.01953125 C135.67456265 94.08366439 133.80494736 98.70315744 131 104 C130.34 104 129.68 104 129 104 C128.67 105.65 128.34 107.3 128 109 C127.34 109 126.68 109 126 109 C125.67 109.99 125.34 110.98 125 112 C124.34 112 123.68 112 123 112 C122.67 112.99 122.34 113.98 122 115 C121.34 115 120.68 115 120 115 C119.690625 115.804375 119.38125 116.60875 119.0625 117.4375 C118 120 118 120 117 121 C115.45806029 121.21691471 113.90729411 121.37167185 112.35546875 121.5 C111.37989014 121.5820166 110.40431152 121.6640332 109.39916992 121.74853516 C108.33931885 121.83151855 107.27946777 121.91450195 106.1875 122 C104.54261597 122.13027588 104.54261597 122.13027588 102.86450195 122.26318359 C99.57691737 122.51748772 96.28873941 122.76113582 93 123 C92.1646875 123.06219727 91.329375 123.12439453 90.46875 123.18847656 C67.97452958 124.79658222 45.21170926 124.36910494 22.6875 123.5625 C21.58591553 123.52334473 20.48433105 123.48418945 19.34936523 123.44384766 C14.46880344 123.24240437 9.81631768 122.83107656 5 122 C0.91316202 121.70419687 -3.18162025 121.5613717 -7.27539062 121.39453125 C-8.09587891 121.35714844 -8.91636719 121.31976563 -9.76171875 121.28125 C-10.50381592 121.25095703 -11.24591309 121.22066406 -12.01049805 121.18945312 C-14 121 -14 121 -17 120 C-16.10489963 100.44912345 -14.84493929 80.92853477 -12.4375 61.5 C-12.31068848 60.47302002 -12.18387695 59.44604004 -12.05322266 58.38793945 C-11.13126 51.26252 -11.13126 51.26252 -10 49 C-9.5112271 46.06441821 -9.05707429 43.13143026 -8.625 40.1875 C-7.59675754 33.42857863 -6.37883555 26.79072577 -4.7578125 20.14453125 C-3.61866313 15.41764857 -2.64302575 10.65748882 -1.6484375 5.8984375 C-1 3 -1 3 0 0 Z " fill="#172150" transform="translate(234,115)"/>
<path d="M0 0 C0.96933472 0.08302368 0.96933472 0.08302368 1.95825195 0.16772461 C42.65271118 3.60211254 83.22314462 3.47722301 124 2 C123.34 4.64 122.68 7.28 122 10 C121.34 10 120.68 10 120 10 C120 15.28 120 20.56 120 26 C120.66 26 121.32 26 122 26 C122.02693575 28.12493141 122.04636628 30.24995912 122.0625 32.375 C122.07410156 33.55835938 122.08570313 34.74171875 122.09765625 35.9609375 C122 39 122 39 121 41 C120.76163621 44.30704725 120.81481312 47.62280304 120.8125 50.9375 C120.80025391 51.85724609 120.78800781 52.77699219 120.77539062 53.72460938 C120.77345703 54.60826172 120.77152344 55.49191406 120.76953125 56.40234375 C120.76542236 57.21179443 120.76131348 58.02124512 120.75708008 58.85522461 C120.86807683 61.29777907 120.86807683 61.29777907 123 64 C123 64.99 123 65.98 123 67 C124.485 67.495 124.485 67.495 126 68 C126 68.66 126 69.32 126 70 C126.66 70 127.32 70 128 70 C128.33 70.66 128.66 71.32 129 72 C131.01669827 73.13350534 131.01669827 73.13350534 133 74 C133 74.66 133 75.32 133 76 C133.66 76 134.32 76 135 76 C135 76.66 135 77.32 135 78 C138.62197194 79.49140021 142.27566618 80.7874262 146 82 C146 82.66 146 83.32 146 84 C146.99 84 147.98 84 149 84 C148.65875384 92.08400387 147.9860152 99.97024953 146.5625 107.9375 C146.37917114 108.96411743 146.37917114 108.96411743 146.19213867 110.01147461 C145.31311436 114.72759138 144.17832593 119.35025744 143 124 C142.6435691 125.99601306 142.30077325 127.994845 142 130 C141.34 130 140.68 130 140 130 C140 132.64 140 135.28 140 138 C136.95219048 139.52390476 133.6928299 139.48458379 130.33984375 139.75390625 C129.14384804 139.85186996 129.14384804 139.85186996 127.9236908 139.95181274 C125.26220459 140.16381981 122.60009091 140.36486579 119.9375 140.5625 C119.02703918 140.6310318 118.11657837 140.6995636 117.17852783 140.77017212 C93.80118033 142.48178144 70.42397462 142.29104594 47 142 C45.8359375 137.2890625 45.8359375 137.2890625 47.3125 134.6875 C47.869375 134.130625 48.42625 133.57375 49 133 C49.66 133 50.32 133 51 133 C51 132.34 51 131.68 51 131 C52.11798712 130.10969694 53.27010712 129.26195654 54.4375 128.4375 C57.33438372 126.02147552 58.54931304 124.45087107 59.0625 120.6875 C59.25607114 115.94500699 58.29857379 111.53964227 57 107 C56.34 107 55.68 107 55 107 C54.51015625 106.40445313 54.0203125 105.80890625 53.515625 105.1953125 C49.74920904 101.90847124 45.52210438 101.12247957 40.75 99.875 C39.83347656 99.62363281 38.91695312 99.37226563 37.97265625 99.11328125 C32.66696485 97.66765064 27.33915229 96.31598824 22 95 C22 94.34 22 93.68 22 93 C20.35 92.67 18.7 92.34 17 92 C17 91.34 17 90.68 17 90 C15.68 89.67 14.36 89.34 13 89 C13 88.34 13 87.68 13 87 C11.35 86.67 9.7 86.34 8 86 C8 85.34 8 84.68 8 84 C7.01 84 6.02 84 5 84 C1.47697198 78.71545798 1.88760106 71.85656945 1.375 65.625 C1.30896576 64.85265015 1.24293152 64.08030029 1.17489624 63.2845459 C-0.5829721 42.22238517 -0.28241076 21.11563534 0 0 Z " fill="#172150" transform="translate(217,241)"/>
<path d="M0 0 C-1.79672622 8.38472237 -3.89894324 16.68756669 -6 25 C-6.66 25 -7.32 25 -8 25 C-8.0825 26.11375 -8.165 27.2275 -8.25 28.375 C-8.78232505 32.6188136 -10.15611352 36.10996136 -11.828125 40.0234375 C-13.26344076 43.66913953 -14.37652531 47.373898 -15.5 51.125 C-16.98036254 56.01802928 -18.57755028 60.6039517 -21.0390625 65.09375 C-22.22150394 67.43940619 -23.06736338 69.8343509 -23.9375 72.3125 C-25.28501116 76.14365918 -26.78314485 79.81952458 -28.5 83.5 C-31.01057133 88.88645799 -33.05667277 94.38714985 -35 100 C-35.66 100 -36.32 100 -37 100 C-37.185625 101.1446875 -37.185625 101.1446875 -37.375 102.3125 C-38 105 -38 105 -40 108 C-41.85630798 108.50828552 -41.85630798 108.50828552 -44.07788086 108.68139648 C-44.88490448 108.74567841 -45.6919281 108.80996033 -46.52340698 108.87619019 C-50.27107081 109.06354336 -54.0019872 109.12378932 -57.75390625 109.09765625 C-58.93339088 109.09553383 -58.93339088 109.09553383 -60.13670349 109.09336853 C-62.61201015 109.08783672 -65.08722137 109.07529775 -67.5625 109.0625 C-69.25585806 109.05747616 -70.94921755 109.05291481 -72.64257812 109.04882812 C-76.7617547 109.03788978 -80.88086125 109.02067362 -85 109 C-90.30211168 98.60772654 -94.72935568 87.85131898 -99 77 C-99.36609375 76.16597656 -99.7321875 75.33195312 -100.109375 74.47265625 C-101 72 -101 72 -101 68 C-101.66 68 -102.32 68 -103 68 C-103.21914062 67.19820313 -103.43828125 66.39640625 -103.6640625 65.5703125 C-105.19912378 60.06655622 -106.75068356 54.61957768 -108.671875 49.23828125 C-108.95337402 48.44083496 -109.23487305 47.64338867 -109.52490234 46.82177734 C-110.08415295 45.25324162 -110.65706455 43.68949839 -111.24462891 42.13134766 C-113.18278896 36.66196936 -113.18278896 36.66196936 -112.1640625 32.97265625 C-111.77992188 32.32167969 -111.39578125 31.67070312 -111 31 C-110.01 31 -109.02 31 -108 31 C-108 30.34 -108 29.68 -108 29 C-106.9275 28.5875 -105.855 28.175 -104.75 27.75 C-101.45490223 26.3587365 -99.44823644 24.62958728 -97 22 C-96.34 22 -95.68 22 -95 22 C-93.7796583 17.03727708 -92.86051879 12.27195855 -92.43359375 7.17578125 C-92.35036865 6.20165283 -92.26714355 5.22752441 -92.18139648 4.22387695 C-92.09160522 3.12305786 -92.09160522 3.12305786 -92 2 C-91.43577332 2.00222061 -90.87154663 2.00444122 -90.29022217 2.00672913 C-57.88978158 2.22662947 -57.88978158 2.22662947 -25.5 1.5625 C-24.44393555 1.52326416 -23.38787109 1.48402832 -22.29980469 1.44360352 C-16.89876941 1.2112002 -11.54606038 0.80485292 -6.17382812 0.19897461 C-4.12338838 0.01129397 -2.05901121 0 0 0 Z " fill="#172150" transform="translate(354,386)"/>
<path d="M0 0 C-0.33 2.64 -0.66 5.28 -1 8 C-1.66 8 -2.32 8 -3 8 C-3.103125 8.969375 -3.20625 9.93875 -3.3125 10.9375 C-3.83938221 14.6633099 -4.92315042 18.05658966 -6.18359375 21.59375 C-8.11229154 27.27833296 -9.42552403 32.96694044 -10.4375 38.875 C-11.49319521 44.7994985 -12.88560735 50.3616196 -15 56 C-15.66 56 -16.32 56 -17 56 C-17.33 58.31 -17.66 60.62 -18 63 C-18.66 63 -19.32 63 -20 63 C-20 63.99 -20 64.98 -20 66 C-20.99 66 -21.98 66 -23 66 C-22.95359375 66.7734375 -22.9071875 67.546875 -22.859375 68.34375 C-22.61168095 75.49149267 -23.24206917 79.89336241 -27 86 C-27.66 86 -28.32 86 -29 86 C-29.0825 86.70125 -29.165 87.4025 -29.25 88.125 C-30.20073532 91.76948541 -31.21142192 94.46004213 -34 97 C-36.93168705 98.49390827 -39.89546748 99.68001315 -42.97265625 100.84375 C-45.4966917 101.8077687 -47.80716525 102.86059683 -50.1875 104.125 C-56.36980025 107.29279021 -62.8517329 109.12215777 -69.6640625 110.375 C-72.19381012 110.98554059 -72.19381012 110.98554059 -75.18359375 112.42578125 C-79.47184941 114.31596897 -83.86052267 115.25320042 -88.4375 116.1875 C-89.64889648 116.45336914 -89.64889648 116.45336914 -90.88476562 116.72460938 C-96.02773361 117.79796047 -100.74805732 118.17486376 -106 118 C-105.44894091 114.0507432 -104.61064629 110.65079826 -103 107 C-102.34 107 -101.68 107 -101 107 C-100.8865625 106.13761719 -100.773125 105.27523437 -100.65625 104.38671875 C-99.98308804 100.91272218 -98.91179352 98.05059619 -97.5 94.8125 C-96.23219545 91.88254471 -95.00973092 89.02919275 -94 86 C-93.34 86 -92.68 86 -92 86 C-91.9175 85.05125 -91.835 84.1025 -91.75 83.125 C-91.18053983 79.2234283 -89.84471417 75.92763622 -88.3203125 72.30859375 C-86.48659497 67.71344953 -84.87358879 63.04783769 -83.25 58.375 C-82.93208496 57.46081299 -82.61416992 56.54662598 -82.28662109 55.60473633 C-81.52264075 53.40376517 -80.76036028 51.20222391 -80 49 C-79.34 49 -78.68 49 -78 49 C-77.95101563 48.41992188 -77.90203125 47.83984375 -77.8515625 47.2421875 C-77.40155075 42.54034058 -76.62296032 38.46314088 -75 34 C-74.63893903 32.33911955 -74.29537827 30.67381019 -74 29 C-73.34 29 -72.68 29 -72 29 C-71.96261719 28.3709375 -71.92523438 27.741875 -71.88671875 27.09375 C-71.82097656 26.2378125 -71.75523437 25.381875 -71.6875 24.5 C-71.60048828 23.24703125 -71.60048828 23.24703125 -71.51171875 21.96875 C-71.06117271 19.35489509 -70.41399247 17.2724461 -69.46801758 14.81445312 C-69.19419754 14.09874146 -68.9203775 13.38302979 -68.63825989 12.64562988 C-68.42763412 12.10257202 -68.21700836 11.55951416 -68 11 C-66.76958984 10.82871582 -65.53917969 10.65743164 -64.27148438 10.48095703 C-59.67874723 9.84044124 -55.08682381 9.19424523 -50.49511719 8.54638672 C-48.51291071 8.26750765 -46.5304908 7.99014105 -44.54785156 7.71435547 C-41.68756713 7.31621537 -38.8281107 6.91252692 -35.96875 6.5078125 C-35.09134155 6.3868924 -34.21393311 6.26597229 -33.30993652 6.14138794 C-28.0938999 5.39664174 -23.09519991 4.34106134 -18 3 C-15.90037547 2.6198313 -13.79629419 2.26298185 -11.6875 1.9375 C-7.73747405 1.32552415 -3.96195336 0 0 0 Z " fill="#172150" transform="translate(429,374)"/>
<path d="M0 0 C5.77759884 -0.12036664 11.27959989 0.1679418 17 1 C16.24684933 8.40598157 16.24684933 8.40598157 15.03881836 11.31298828 C14.00788077 13.97961558 13.44524843 16.41711007 12.96484375 19.23046875 C12.71057617 20.68163086 12.71057617 20.68163086 12.45117188 22.16210938 C12.1969043 23.65967773 12.1969043 23.65967773 11.9375 25.1875 C11.59520483 27.18146481 11.2502834 29.17498113 10.90234375 31.16796875 C10.75273193 32.04735107 10.60312012 32.9267334 10.44897461 33.83276367 C10 36 10 36 9 38 C8.50174937 40.98800304 8.04696629 43.96977526 7.625 46.96875 C7.49561035 47.87765991 7.3662207 48.78656982 7.23291016 49.72302246 C6.95871861 51.65964499 6.68647912 53.59654471 6.41601562 55.53369141 C6.00928187 58.43381763 5.59096326 61.33210595 5.171875 64.23046875 C3.71336055 74.51334875 2.61775666 84.69276143 2.2109375 95.07226562 C1.99456712 99.10116215 1.53326804 103.00245696 1 107 C0.79645361 109.33198833 0.60773536 111.66534358 0.4375 114 C0.31181641 115.7015625 0.31181641 115.7015625 0.18359375 117.4375 C0.12300781 118.283125 0.06242187 119.12875 0 120 C-12.70306958 119.10356996 -25.00124126 117.61002661 -37.453125 114.9375 C-41.36866143 114.10288108 -45.27656933 113.50342108 -49.25 113 C-56.32943787 112.05275127 -63.13255466 110.38939055 -70.01855469 108.53222656 C-71.98041492 108.00526066 -73.94669362 107.49813893 -75.9140625 106.9921875 C-77.13867188 106.66476563 -78.36328125 106.33734375 -79.625 106 C-80.71039063 105.71125 -81.79578125 105.4225 -82.9140625 105.125 C-86.43204456 103.84249515 -89.09819553 102.37024269 -92 100 C-92 98.68 -92 97.36 -92 96 C-91.34 96 -90.68 96 -90 96 C-89.95875 94.948125 -89.9175 93.89625 -89.875 92.8125 C-88.80107885 88.13327214 -86.69413121 86.66549903 -83 84 C-77.81956273 79.45132337 -75.03709489 74.07418978 -72 68 C-71.34 68 -70.68 68 -70 68 C-69.67 66.68 -69.34 65.36 -69 64 C-68.34 64 -67.68 64 -67 64 C-66.95875 63.4225 -66.9175 62.845 -66.875 62.25 C-65.54546871 58.83120525 -63.10333371 57.77333355 -60 56 C-59.34 56 -58.68 56 -58 56 C-58 55.34 -58 54.68 -58 54 C-57.01 53.34 -56.02 52.68 -55 52 C-53.88240592 49.95682946 -53.88240592 49.95682946 -53 47.625 C-50.42148799 41.52677008 -50.42148799 41.52677008 -48 39 C-44.85069107 37.95023036 -42.61185544 37.89868405 -39.3125 37.9375 C-38.31863281 37.94652344 -37.32476562 37.95554688 -36.30078125 37.96484375 C-35.16189453 37.98224609 -35.16189453 37.98224609 -34 38 C-33.731875 39.134375 -33.46375 40.26875 -33.1875 41.4375 C-32.795625 42.613125 -32.40375 43.78875 -32 45 C-28.32264395 46.22578535 -27.44933477 45.46596728 -24 44 C-23.01 44 -22.02 44 -21 44 C-21 43.34 -21 42.68 -21 42 C-16.61538462 39 -16.61538462 39 -14 39 C-13.67 36.03 -13.34 33.06 -13 30 C-14.340625 29.87625 -15.68125 29.7525 -17.0625 29.625 C-25.37196792 28.62891236 -25.37196792 28.62891236 -29 27 C-30.4375 23.375 -30.4375 23.375 -31 20 C-33.94890282 19.83149127 -35.85981027 19.94325654 -38.625 21.0625 C-41 22 -41 22 -44 21 C-39.41082017 18.39085783 -35.64406222 17.4769596 -30.40625 16.97265625 C-28.94919544 16.8185797 -27.49216488 16.66427591 -26.03515625 16.50976562 C-23.76463779 16.28310669 -21.4937294 16.06190386 -19.22216797 15.84594727 C-17.01100394 15.63143135 -14.80264867 15.39671427 -12.59375 15.16015625 C-10.62438477 14.96885132 -10.62438477 14.96885132 -8.61523438 14.77368164 C-4.31752771 13.85394687 -1.1282186 12.1282186 2 9 C1.55206891 4.34934387 1.55206891 4.34934387 0 0 Z " fill="#172150" transform="translate(211,114)"/>
<path d="M0 0 C7.2111658 -0.58468912 13.93408124 2.08022437 20.75 4.125 C24.15342292 5.04130617 27.51356749 5.51189945 31 6 C31.495 6.495 31.495 6.495 32 7 C34.2905822 7.53446918 36.56427005 8.00671372 38.875 8.4375 C39.9427063 8.6387146 39.9427063 8.6387146 41.03198242 8.84399414 C46.44257336 9.81894405 51.84022464 10.43527417 57.3125 10.9375 C67.05721207 11.8361913 76.47444764 13.80261614 86 16 C85.98952637 16.7213916 85.97905273 17.4427832 85.96826172 18.18603516 C85.77465935 33.75999776 86.12178335 49.07578335 87.28417969 64.61035156 C87.93520306 73.43559616 88.25438738 82.15297207 88 91 C83.13451192 90.34065816 78.74092364 89.03428754 74.125 87.4375 C73.43664062 87.20353516 72.74828125 86.96957031 72.0390625 86.72851562 C70.35796355 86.15647501 68.67877837 85.57881544 67 85 C67 84.34 67 83.68 67 83 C65.35 82.67 63.7 82.34 62 82 C62 81.34 62 80.68 62 80 C60.515 79.505 60.515 79.505 59 79 C59 78.34 59 77.68 59 77 C58.01 77 57.02 77 56 77 C56 76.01 56 75.02 56 74 C55.34 74 54.68 74 54 74 C54 73.34 54 72.68 54 72 C53.34 72 52.68 72 52 72 C50.66666667 70.66666667 49.33333333 69.33333333 48 68 C47.01 67.67 46.02 67.34 45 67 C45 66.34 45 65.68 45 65 C41.58268208 65.1100917 38.16644426 65.24067061 34.75 65.375 C33.78191406 65.4059375 32.81382812 65.436875 31.81640625 65.46875 C30.88183594 65.50742187 29.94726562 65.54609375 28.984375 65.5859375 C28.12553711 65.6173584 27.26669922 65.6487793 26.38183594 65.68115234 C23.79265717 66.02775623 22.16077983 66.53141028 20 68 C18.70079254 71.54588501 18.70079254 71.54588501 18 75 C17.34 75 16.68 75 16 75 C15.34 71.7 14.68 68.4 14 65 C11.02934491 65.34227572 11.02934491 65.34227572 8 66 C7.67 66.66 7.34 67.32 7 68 C6.34 68 5.68 68 5 68 C4.731875 68.639375 4.46375 69.27875 4.1875 69.9375 C3 72 3 72 0 73 C-2.26171875 72.44140625 -2.26171875 72.44140625 -4.6875 71.5625 C-5.89986328 71.13130859 -5.89986328 71.13130859 -7.13671875 70.69140625 C-7.75160156 70.46324219 -8.36648437 70.23507812 -9 70 C-9.34002182 65.5629865 -9.67077776 61.12532684 -10 56.6875 C-10.09539062 55.44419922 -10.19078125 54.20089844 -10.2890625 52.91992188 C-10.82784604 45.58861724 -11.10026773 38.3508776 -11 31 C-5.06 31.66 0.88 32.32 7 33 C7 32.34 7 31.68 7 31 C6.113125 30.896875 5.22625 30.79375 4.3125 30.6875 C0.9173245 29.98284093 -1.21942098 29.0445434 -4 27 C-4 26.34 -4 25.68 -4 25 C-6.31 24.67 -8.62 24.34 -11 24 C-11 20.7 -11 17.4 -11 14 C-9.906875 13.9175 -8.81375 13.835 -7.6875 13.75 C-4.09756866 13.31202516 -4.09756866 13.31202516 -2.125 11.5 C-0.45345589 7.78545754 -0.25001652 4.03474934 0 0 Z " fill="#172150" transform="translate(125,225)"/>
<path d="M0 0 C2.64 0 5.28 0 8 0 C9.322644 2.53682516 10.63317361 5.07877651 11.9375 7.625 C12.31068359 8.33785156 12.68386719 9.05070312 13.06835938 9.78515625 C15.14783988 13.86918102 16.53994321 17.3702221 17 22 C17.66 22 18.32 22 19 22 C19.39832031 23.22976562 19.39832031 23.22976562 19.8046875 24.484375 C20.15789062 25.56203125 20.51109375 26.6396875 20.875 27.75 C21.22304688 28.81734375 21.57109375 29.8846875 21.9296875 30.984375 C22.88555633 33.90901365 22.88555633 33.90901365 24.1328125 36.140625 C25 38 25 38 25 42 C25.66 42 26.32 42 27 42 C27.67467562 43.74692795 28.33944156 45.49768525 29 47.25 C29.37125 48.22453125 29.7425 49.1990625 30.125 50.203125 C31 53 31 53 31 57 C31.66 57 32.32 57 33 57 C35.25164162 63.52976071 37.19337335 70.10857837 39.03515625 76.765625 C39.90594305 79.92956706 39.90594305 79.92956706 41.12109375 82.546875 C42.17047342 85.47581026 42.05964164 87.90923751 42 91 C19.61099318 93.01297622 -2.77983785 93.20027805 -25.24116516 93.18847656 C-27.55811796 93.18750184 -29.87506403 93.18847244 -32.1920166 93.18969727 C-35.90619815 93.19065476 -39.62031393 93.18494379 -43.33447838 93.17376137 C-44.71992366 93.16995234 -46.10537354 93.16752074 -47.49082375 93.16658592 C-54.74114168 93.15845177 -61.81220826 92.98004233 -69 92 C-70.28794201 88.13617396 -69.30826775 85.46860247 -68.25 81.6875 C-68.07984375 81.03587891 -67.9096875 80.38425781 -67.734375 79.71289062 C-66.59441948 75.52606869 -65.0580603 71.81450831 -63 68 C-60.69 68.33 -58.38 68.66 -56 69 C-56 69.66 -56 70.32 -56 71 C-53.03 71 -50.06 71 -47 71 C-46.67 69.35 -46.34 67.7 -46 66 C-45.34 66 -44.68 66 -44 66 C-43.67 64.02 -43.34 62.04 -43 60 C-42.34 60 -41.68 60 -41 60 C-40.7525 59.443125 -40.505 58.88625 -40.25 58.3125 C-38.77075182 55.57589087 -37.06532561 53.32349131 -35 51 C-34.34 51 -33.68 51 -33 51 C-32.67 50.01 -32.34 49.02 -32 48 C-31.34 48 -30.68 48 -30 48 C-30 47.34 -30 46.68 -30 46 C-28.77217138 45.37237545 -27.54266164 44.74803935 -26.3125 44.125 C-25.62800781 43.77695312 -24.94351563 43.42890625 -24.23828125 43.0703125 C-18.38605919 40.27186775 -12.53773074 38.89262441 -6.23828125 37.5 C-2.32876863 36.61430511 1.31885099 35.63606623 5 34 C5.14628087 28.77625013 5.14628087 28.77625013 4.5 23.625 C3.70312419 19.44140202 3.93786821 15.24567253 4 11 C4.46409722 6.99977339 4.46409722 6.99977339 2 4.9375 C1.01 3.9784375 1.01 3.9784375 0 3 C0 2.01 0 1.02 0 0 Z " fill="#172150" transform="translate(306,18)"/>
<path d="M0 0 C2.78633115 4.17949673 4 6.93375326 4 12 C4.66 12 5.32 12 6 12 C6.33 13.98 6.66 15.96 7 18 C7.66 18 8.32 18 9 18 C9.33 20.64 9.66 23.28 10 26 C10.66 26 11.32 26 12 26 C12.67354499 27.43429001 13.33859701 28.87257057 14 30.3125 C14.37125 31.11300781 14.7425 31.91351563 15.125 32.73828125 C16 35 16 35 16 38 C16.66 38 17.32 38 18 38 C18 38.66 18 39.32 18 40 C18.99 40.103125 19.98 40.20625 21 40.3125 C25.28297163 40.90808706 28.99996371 42.38595027 33 44 C33 44.66 33 45.32 33 46 C33.58652344 46.08507812 34.17304687 46.17015625 34.77734375 46.2578125 C37.62894031 47.21001522 38.67010903 48.56348889 40.5625 50.875 C43.02572639 53.85867582 43.02572639 53.85867582 45.71484375 56.6328125 C47 58 47 58 47 60 C47.66 60 48.32 60 49 60 C49.33 60.99 49.66 61.98 50 63 C53.79292844 66.65516254 53.79292844 66.65516254 58.51586914 68.66918945 C61 70 61 70 61.99487305 72.85400391 C62.25071167 74.64717041 62.25071167 74.64717041 62.51171875 76.4765625 C62.61088089 77.12064056 62.71004303 77.76471863 62.81221008 78.42831421 C63.12553911 80.49134792 63.40741232 82.55721596 63.6875 84.625 C63.98413194 86.66546091 64.28719668 88.70488011 64.59155273 90.74420166 C64.88115188 92.68917492 65.1642728 94.63510923 65.44726562 96.58105469 C65.89036283 99.32183792 66.42014193 101.93951969 67.13671875 104.6171875 C67.9355779 107.74755867 68.21419367 110.28902798 68.125 113.5 C68.10695313 114.3559375 68.08890625 115.211875 68.0703125 116.09375 C68.04710938 116.7228125 68.02390625 117.351875 68 118 C68.66 118 69.32 118 70 118 C72.44697666 122.36200187 73.50269348 126.02693484 74 131 C68.06 130.01 68.06 130.01 62 129 C62 128.34 62 127.68 62 127 C60.88625 126.9175 59.7725 126.835 58.625 126.75 C54.33605886 126.20918781 50.7312707 124.85368584 46.76953125 123.16796875 C43.70935539 121.87742914 40.61213901 120.72178093 37.5 119.5625 C31.80305356 117.38644217 26.38485193 114.85652416 21 112 C21 111.34 21 110.68 21 110 C20.278125 109.938125 19.55625 109.87625 18.8125 109.8125 C14.97963302 108.70522732 13.57836506 107.04534449 11 104 C9.64274892 101.25100651 8.71561578 98.42565142 7.8125 95.5 C7.55766846 94.70988525 7.30283691 93.91977051 7.0402832 93.10571289 C5.2057821 87.20991131 4.03695786 81.44734677 3.32421875 75.30859375 C3.24196004 73.04132869 3.24196004 73.04132869 2 72 C1.62404663 69.37420067 1.2933049 66.7601612 1 64.125 C0.39587242 58.48589133 0.39587242 58.48589133 -1 53 C-1.1664474 50.20493304 -1.28186915 47.43048234 -1.3515625 44.6328125 C-1.37471527 43.80224335 -1.39786804 42.97167419 -1.42172241 42.11593628 C-1.46936834 40.35241782 -1.51460164 38.58883279 -1.55761719 36.82519531 C-1.62388645 34.1696227 -1.70204898 31.51458925 -1.78125 28.859375 C-2.3000098 9.81117754 -2.3000098 9.81117754 -1 1 C-0.67 0.67 -0.34 0.34 0 0 Z " fill="#172150" transform="translate(51,230)"/>
<path d="M0 0 C2.31 0.66 4.62 1.32 7 2 C7 2.66 7 3.32 7 4 C8.30324219 4.17402344 8.30324219 4.17402344 9.6328125 4.3515625 C13.00124136 5.00023906 15.73936135 6.00263826 18.875 7.375 C23.54523006 9.38401418 28.22533833 11.25541208 33 13 C33 13.66 33 14.32 33 15 C34.27875 15.103125 35.5575 15.20625 36.875 15.3125 C42.16516488 15.9095092 46.97701498 17.27580922 52 19 C52.82242188 19.23074219 53.64484375 19.46148437 54.4921875 19.69921875 C58.28005831 20.97219173 60.39994587 21.91548291 62.37890625 25.4921875 C63.41154565 28.30431988 64.23999138 31.10352272 65 34 C65.5878125 35.60875 65.5878125 35.60875 66.1875 37.25 C67.14121118 40.47794553 67.59945665 43.66213872 68 47 C68.66 47 69.32 47 70 47 C70.50615298 48.26839526 71.00469099 49.53983102 71.5 50.8125 C71.7784375 51.52019531 72.056875 52.22789062 72.34375 52.95703125 C73 55 73 55 73 58 C73.66 58 74.32 58 75 58 C75.4125 59.134375 75.825 60.26875 76.25 61.4375 C77.72112858 65.39335772 79.42773006 69.20474712 81.23046875 73.01953125 C82 75 82 75 82 78 C82.66 78 83.32 78 84 78 C84.33 79.98 84.66 81.96 85 84 C85.66 84 86.32 84 87 84 C87.33 85.98 87.66 87.96 88 90 C88.66 90 89.32 90 90 90 C90.33 91.98 90.66 93.96 91 96 C91.66 96 92.32 96 93 96 C95.04169485 98.90548882 96 100.40142046 96 104 C96.66 104 97.32 104 98 104 C98.33 105.98 98.66 107.96 99 110 C99.66 110 100.32 110 101 110 C101.99 113.465 101.99 113.465 103 117 C101.02 116.34 99.04 115.68 97 115 C97 114.34 97 113.68 97 113 C96.42765625 112.88527344 95.8553125 112.77054687 95.265625 112.65234375 C92.78528344 111.93817644 90.93631303 110.92692128 88.75 109.5625 C88.04359375 109.13066406 87.3371875 108.69882812 86.609375 108.25390625 C85.81273437 107.63322266 85.81273437 107.63322266 85 107 C85 106.34 85 105.68 85 105 C84.42765625 104.89558594 83.8553125 104.79117188 83.265625 104.68359375 C80.63014232 103.88840501 78.93968692 102.72098509 76.75 101.0625 C76.04359375 100.53785156 75.3371875 100.01320313 74.609375 99.47265625 C73.81273437 98.74369141 73.81273437 98.74369141 73 98 C73 97.34 73 96.68 73 96 C72.4225 95.896875 71.845 95.79375 71.25 95.6875 C68.64338842 94.89103535 67.0264689 93.80934723 65 92 C65 91.34 65 90.68 65 90 C63.515 89.505 63.515 89.505 62 89 C62 88.34 62 87.68 62 87 C61.01 86.67 60.02 86.34 59 86 C59 85.34 59 84.68 59 84 C58.195625 83.731875 57.39125 83.46375 56.5625 83.1875 C55.716875 82.795625 54.87125 82.40375 54 82 C53.67 81.01 53.34 80.02 53 79 C52.01 78.67 51.02 78.34 50 78 C50 77.34 50 76.68 50 76 C49.01 75.67 48.02 75.34 47 75 C46.33333333 73.33333333 45.66666667 71.66666667 45 70 C44.01 69.67 43.02 69.34 42 69 C42 68.34 42 67.68 42 67 C41.01 66.67 40.02 66.34 39 66 C39 65.34 39 64.68 39 64 C38.34 64 37.68 64 37 64 C33 58.58823529 33 58.58823529 33 56 C32.34 56 31.68 56 31 56 C29.2734375 53.8828125 29.2734375 53.8828125 27.375 51.125 C26.74335937 50.22007812 26.11171875 49.31515625 25.4609375 48.3828125 C24 46 24 46 24 44 C23.34 44 22.68 44 22 44 C20.93453465 42.3744043 19.95008949 40.69561426 19 39 C18.35804687 37.97648437 17.71609375 36.95296875 17.0546875 35.8984375 C12.60652368 28.74989481 8.61840063 21.48024692 5 13.875 C4.61440918 13.06981934 4.22881836 12.26463867 3.83154297 11.43505859 C2.06510416 7.64937687 0.53817738 4.18769271 0 0 Z " fill="#172150" transform="translate(68,347)"/>
<path d="M0 0 C6.25107435 0.42954941 12.04204521 1.01401507 18 3 C18 3.66 18 4.32 18 5 C15.36 5.33 12.72 5.66 10 6 C9.67 7.65 9.34 9.3 9 11 C9.72574219 11.12503906 10.45148438 11.25007813 11.19921875 11.37890625 C13.92728723 11.98387541 16.24864444 12.83988817 18.8125 13.9375 C23.16876878 15.73356284 27.40399538 16.97866564 32 18 C31.80140021 12.99150873 31.80140021 12.99150873 28.9375 9.1875 C28.298125 8.795625 27.65875 8.40375 27 8 C27 7.34 27 6.68 27 6 C33.46385479 6.55490169 39.04084371 8.16755499 45.125 10.375 C46.42630859 10.83132812 46.42630859 10.83132812 47.75390625 11.296875 C52.34407337 12.93172904 56.70191352 14.70298985 61 17 C61 17.99 61 18.98 61 20 C61.639375 20.226875 62.27875 20.45375 62.9375 20.6875 C67.13320261 22.48565826 71.03900556 24.73904021 75 27 C75 27.66 75 28.32 75 29 C76.485 29.495 76.485 29.495 78 30 C80.07530387 32.92079805 81 34.37546731 81 38 C81.66 38 82.32 38 83 38 C85.125 42.625 85.125 42.625 84 46 C83.55011719 45.65066406 83.10023438 45.30132812 82.63671875 44.94140625 C76.98227655 40.94136999 71.90183198 39.84996017 65 40 C63.66159222 40.31233554 62.32703041 40.64239801 61 41 C61.14111883 43.75031587 61.28771165 46.50015418 61.4375 49.25 C61.47681641 50.02730469 61.51613281 50.80460937 61.55664062 51.60546875 C61.59853516 52.35957031 61.64042969 53.11367187 61.68359375 53.890625 C61.73858032 54.92751465 61.73858032 54.92751465 61.79467773 55.98535156 C61.95185147 58.01903381 61.95185147 58.01903381 62.51586914 60.02246094 C63.24682083 63.00819402 63.05880421 65.94218112 63 69 C62.34 69 61.68 69 61 69 C61 69.99 61 70.98 61 72 C60.01 72 59.02 72 58 72 C57.7215625 73.794375 57.7215625 73.794375 57.4375 75.625 C57.28087891 76.63433594 57.28087891 76.63433594 57.12109375 77.6640625 C56.97123391 80.55490717 57.45190385 83.16613992 58 86 C55.5837428 86.27648714 53.17088623 86.52178337 50.75 86.75 C50.06808594 86.83121094 49.38617188 86.91242188 48.68359375 86.99609375 C45.04265034 87.31423444 43.42399849 87.33866546 40.515625 85.015625 C40.01546875 84.35046875 39.5153125 83.6853125 39 83 C38.731875 83.639375 38.46375 84.27875 38.1875 84.9375 C37 87 37 87 34 88 C31.97750838 84.96626258 31.17647822 82.63346393 30.16015625 79.15625 C28.08004783 72.21163607 25.80019651 65.35301518 23.4375 58.5 C23.05142578 57.36046875 22.66535156 56.2209375 22.26757812 55.046875 C21.88923828 53.94859375 21.51089844 52.8503125 21.12109375 51.71875 C20.7852124 50.73841797 20.44933105 49.75808594 20.10327148 48.74804688 C18.98171504 45.95445551 17.59151195 43.5490538 16 41 C15.2265625 39 15.2265625 39 14.625 37 C11.72981897 27.92240115 8.15055711 19.15888785 4.13671875 10.5234375 C2.58158785 7.07115379 1.27743761 3.56337861 0 0 Z " fill="#172150" transform="translate(322,20)"/>
<path d="M0 0 C0 0.99 0 1.98 0 3 C4.455 3.99 4.455 3.99 9 5 C9 5.66 9 6.32 9 7 C9.66 7 10.32 7 11 7 C12.74060378 10.48120756 12.49654046 14.20369187 11.46875 17.921875 C10.13428408 21.54814108 8.532098 25.04482876 6.9375 28.5625 C3.52734859 36.24513996 1.89303209 43.56085757 3 52 C3.515625 52.65871094 4.03125 53.31742188 4.5625 53.99609375 C6 56 6 56 5.92578125 58.8046875 C5.72339844 59.81789062 5.52101563 60.83109375 5.3125 61.875 C5.10109375 62.94105469 4.8896875 64.00710937 4.671875 65.10546875 C3.96143007 68.16616462 3.11060163 71.06017215 2 74 C1.67708984 75.14855469 1.67708984 75.14855469 1.34765625 76.3203125 C1.10917969 77.14273438 0.87070313 77.96515625 0.625 78.8125 C0.41101563 79.58207031 0.19703125 80.35164063 -0.0234375 81.14453125 C-1 83 -1 83 -2.77197266 83.63500977 C-5.19076272 84.0312503 -7.18914206 83.9497089 -9.625 83.6953125 C-10.93210938 83.56189453 -10.93210938 83.56189453 -12.265625 83.42578125 C-13.16796875 83.32652344 -14.0703125 83.22726563 -15 83.125 C-15.90234375 83.03347656 -16.8046875 82.94195312 -17.734375 82.84765625 C-21.61609265 82.43996105 -25.19944089 81.95013978 -29 81 C-29.99 76.05 -30.98 71.1 -32 66 C-34.97 66.99 -34.97 66.99 -38 68 C-41.875 67.625 -41.875 67.625 -45 67 C-45 64.03 -45 61.06 -45 58 C-50.61 58 -56.22 58 -62 58 C-62 58.66 -62 59.32 -62 60 C-62.66 60 -63.32 60 -64 60 C-64.33 61.32 -64.66 62.64 -65 64 C-65.66 64 -66.32 64 -67 64 C-67.66 66.97 -68.32 69.94 -69 73 C-71.64 73 -74.28 73 -77 73 C-76.44477339 67.68805588 -74.61609835 63.72135382 -72.1875 59.0625 C-71.84396484 58.38509766 -71.50042969 57.70769531 -71.14648438 57.00976562 C-67.80482899 50.47065386 -64.34247523 43.93471615 -60 38 C-59.34 38 -58.68 38 -58 38 C-57.67 37.01 -57.34 36.02 -57 35 C-56.34 35 -55.68 35 -55 35 C-54.7525 34.401875 -54.505 33.80375 -54.25 33.1875 C-52.71177759 30.49561078 -51.74832178 29.47986557 -49 28 C-44.46521706 27.05629747 -40.47537112 26.65738866 -36 28 C-35.3125 31.3125 -35.3125 31.3125 -35 35 C-37.03251921 37.75606974 -39.14697099 38.57455824 -42.375 39.5 C-45.92725083 40.61080156 -48.98770954 41.74078216 -52 44 C-52.33 44.99 -52.66 45.98 -53 47 C-52.00419922 47.18175781 -52.00419922 47.18175781 -50.98828125 47.3671875 C-46.46575541 48.22547708 -42.20061476 49.03971311 -38 51 C-38 51.66 -38 52.32 -38 53 C-37.01 53.33 -36.02 53.66 -35 54 C-35 54.66 -35 55.32 -35 56 C-30.65815798 55.81535634 -30.65815798 55.81535634 -27 54 C-26.86017939 50.92394658 -26.94121171 48.25866846 -27.625 45.25 C-27.74875 44.5075 -27.8725 43.765 -28 43 C-26 41 -26 41 -23.3984375 40.8046875 C-21.90183594 40.83949219 -21.90183594 40.83949219 -20.375 40.875 C-19.37210938 40.89304688 -18.36921875 40.91109375 -17.3359375 40.9296875 C-16.17964844 40.96449219 -16.17964844 40.96449219 -15 41 C-15 39.02 -15 37.04 -15 35 C-15.99 34.67 -16.98 34.34 -18 34 C-18 33.34 -18 32.68 -18 32 C-18.66 32 -19.32 32 -20 32 C-20 30.35 -20 28.7 -20 27 C-19.34 27 -18.68 27 -18 27 C-17.505 25.515 -17.505 25.515 -17 24 C-16.34 24 -15.68 24 -15 24 C-15 22.35 -15 20.7 -15 19 C-15.61875 18.731875 -16.2375 18.46375 -16.875 18.1875 C-19 17 -19 17 -21 14 C-20.92858032 10.07191783 -20.66820885 7.80185062 -18.125 4.75 C-12.50285886 1.60160096 -6.43477431 0 0 0 Z " fill="#172150" transform="translate(231,25)"/>
<path d="M0 0 C2.875 1.875 2.875 1.875 5 4 C5 4.66 5 5.32 5 6 C10.445 7.485 10.445 7.485 16 9 C16 11.97 16 14.94 16 18 C15.34 18 14.68 18 14 18 C13.855625 19.134375 13.71125 20.26875 13.5625 21.4375 C13 25 13 25 12 26 C11.44019855 32.31929712 11.44996733 37.52703297 15 43 C11.98122184 44.67972972 9.29321926 45.45649165 5.89453125 46.03515625 C4.91033203 46.20466797 3.92613281 46.37417969 2.91210938 46.54882812 C1.88923828 46.71833984 0.86636719 46.88785156 -0.1875 47.0625 C-1.19103516 47.23587891 -2.19457031 47.40925781 -3.22851562 47.58789062 C-7.87072655 48.37619059 -12.49055712 49.08274343 -17.17578125 49.55859375 C-20.78046693 49.57334548 -20.78046693 49.57334548 -22 51 C-23.31691466 51.22608057 -24.64394468 51.39408103 -25.97265625 51.53515625 C-27.19952148 51.66567383 -27.19952148 51.66567383 -28.45117188 51.79882812 C-29.31291016 51.88583984 -30.17464844 51.97285156 -31.0625 52.0625 C-31.89716797 52.15337891 -32.73183594 52.24425781 -33.59179688 52.33789062 C-38.75832621 52.87347005 -43.80640816 53.09006229 -49 53 C-48.91038941 51.51988019 -48.80226028 50.04088249 -48.6875 48.5625 C-48.62949219 47.73878906 -48.57148438 46.91507812 -48.51171875 46.06640625 C-48.0746216 43.44715998 -47.46130343 41.29374602 -46.58984375 38.8046875 C-44.85553278 33.79879983 -43.82671538 28.76647973 -42.875 23.5625 C-42.62169922 22.24668945 -42.62169922 22.24668945 -42.36328125 20.90429688 C-41.23969359 14.90150768 -40.61422291 9.14222913 -40 3 C-29.77 3 -19.54 3 -9 3 C-9 2.34 -9 1.68 -9 1 C-5.66660588 -0.11113137 -3.49519344 -0.34951934 0 0 Z " fill="#172150" transform="translate(412,325)"/>
<path d="M0 0 C1.62566606 0.47690204 3.25051311 0.95659666 4.875 1.4375 C5.77992188 1.70433594 6.68484375 1.97117187 7.6171875 2.24609375 C10 3 10 3 12 4 C12 4.66 12 5.32 12 6 C12.99 6 13.98 6 15 6 C15 6.66 15 7.32 15 8 C15.99 8.33 16.98 8.66 18 9 C18 9.99 18 10.98 18 12 C18.66 12 19.32 12 20 12 C21.625 13.375 21.625 13.375 23 15 C23 15.66 23 16.32 23 17 C23.99 17.33 24.98 17.66 26 18 C26 18.66 26 19.32 26 20 C26.99 20.33 27.98 20.66 29 21 C29 21.66 29 22.32 29 23 C29.99 23.33 30.98 23.66 32 24 C37.11088336 31.91685854 40.08168196 41.20562524 43.27099609 50.02490234 C43.98227763 51.95198459 44.72670664 53.86182455 45.48828125 55.76953125 C45.94589844 56.91808594 46.40351563 58.06664062 46.875 59.25 C47.28492188 60.26578125 47.69484375 61.2815625 48.1171875 62.328125 C49 65 49 65 49 69 C49.66 69 50.32 69 51 69 C51.67408308 70.26691507 52.33900497 71.53870749 53 72.8125 C53.37125 73.52019531 53.7425 74.22789062 54.125 74.95703125 C55 77 55 77 55 80 C55.66 80 56.32 80 57 80 C57.33 81.32 57.66 82.64 58 84 C58.66 84 59.32 84 60 84 C61.35386936 85.65002828 62.68678142 87.3174387 64 89 C64.66 89.33 65.32 89.66 66 90 C66 90.66 66 91.32 66 92 C67.485 92.495 67.485 92.495 69 93 C69 93.66 69 94.32 69 95 C70.485 95.495 70.485 95.495 72 96 C72 96.66 72 97.32 72 98 C73.485 98.495 73.485 98.495 75 99 C75 99.66 75 100.32 75 101 C75.66 101 76.32 101 77 101 C78.02104551 101.97850195 79.0206121 102.97980427 80 104 C80.66 104.33 81.32 104.66 82 105 C81.505 106.98 81.505 106.98 81 109 C73.41351871 106.79558194 66.10445807 104.46991357 59 101 C58.14277344 100.58492188 57.28554687 100.16984375 56.40234375 99.7421875 C53.92040628 98.52132283 51.45990419 97.26447707 49 96 C48.05125 95.54625 47.1025 95.0925 46.125 94.625 C42.95995941 92.20467484 41.73068005 89.58955862 40 86 C40 85.01 40 84.02 40 83 C39.34 83 38.68 83 38 83 C38 82.01 38 81.02 38 80 C37.34 80 36.68 80 36 80 C35.67 78.35 35.34 76.7 35 75 C34.34 75 33.68 75 33 75 C32.32645501 73.56570999 31.66140299 72.12742943 31 70.6875 C30.443125 69.48673828 30.443125 69.48673828 29.875 68.26171875 C29 66 29 66 29 63 C28.34 63 27.68 63 27 63 C26.46375 61.9275 25.9275 60.855 25.375 59.75 C24.82972656 58.66138672 24.82972656 58.66138672 24.2734375 57.55078125 C23.35789068 55.71687918 22.44698311 53.88065832 21.5390625 52.04296875 C18.31511876 45.50452146 18.31511876 45.50452146 14.6875 39.1875 C12.76800221 35.56178195 12.33011595 33.04392038 12 29 C11.34 29 10.68 29 10 29 C9.69707031 28.20078125 9.39414063 27.4015625 9.08203125 26.578125 C6.50903602 19.83291904 3.83109798 13.1646745 0.91796875 6.55859375 C0 4 0 4 0 0 Z " fill="#172150" transform="translate(138,377)"/>
<path d="M0 0 C3.94120709 0.56302958 6.7508723 1.6791945 10 4 C10 4.66 10 5.32 10 6 C10.99 6.33 11.98 6.66 13 7 C14.40113616 8.95309888 15.73339467 10.95708818 17 13 C17.66 13.99 18.32 14.98 19 16 C19 16.66 19 17.32 19 18 C19.66 18 20.32 18 21 18 C21.39832031 18.81984375 21.79664063 19.6396875 22.20703125 20.484375 C22.73683594 21.56203125 23.26664062 22.6396875 23.8125 23.75 C24.33457031 24.81734375 24.85664063 25.8846875 25.39453125 26.984375 C26.82965791 29.94218302 26.82965791 29.94218302 28.65625 31.9375 C30.62826963 34.96432082 30.52216931 37.67885709 30.6875 41.25 C30.75324219 42.51328125 30.81898438 43.7765625 30.88671875 45.078125 C30.94279297 46.52445313 30.94279297 46.52445313 31 48 C23.84541597 50.82067357 17.61621919 53.20714923 10 51 C6.9375 49.5625 6.9375 49.5625 5 48 C5 47.34 5 46.68 5 46 C4.01 45.67 3.02 45.34 2 45 C2 44.34 2 43.68 2 43 C1.34 43 0.68 43 0 43 C-4 36.25 -4 36.25 -4 34 C-4.66 34 -5.32 34 -6 34 C-6 33.34 -6 32.68 -6 32 C-13.06435457 32.33639784 -18.61231676 32.99403142 -25 36 C-31.57186764 37.44581088 -38.30529657 37.09060501 -45 37 C-45 36.34 -45 35.68 -45 35 C-43.02 34.505 -43.02 34.505 -41 34 C-41 33.34 -41 32.68 -41 32 C-39.625 30.375 -39.625 30.375 -38 29 C-37.34 29 -36.68 29 -36 29 C-35.88785156 28.26523438 -35.77570313 27.53046875 -35.66015625 26.7734375 C-33.77596624 18.85760966 -27.38752408 12.66780606 -21 8 C-17.202373 5.80483988 -14.40560952 5.61354302 -10 6 C-6.64055388 7.41843281 -5.34457079 8.16897633 -3.9375 11.5625 C-3.628125 12.366875 -3.31875 13.17125 -3 14 C-1.6846659 14.70151152 -0.34882408 15.36525925 1 16 C4.60540423 19.7217076 6.59914995 24.04669071 8.75390625 28.6953125 C9.95050838 30.90846378 11.13002608 32.34141444 13 34 C13.433125 33.175 13.86625 32.35 14.3125 31.5 C14.869375 30.675 15.42625 29.85 16 29 C16.99 29 17.98 29 19 29 C17.64717831 24.57258356 15.76701112 22.63690779 12 20 C11.34 19.67 10.68 19.34 10 19 C10 18.34 10 17.68 10 17 C9.34 17 8.68 17 8 17 C6.5625 15.6875 6.5625 15.6875 5 14 C4.443125 13.484375 3.88625 12.96875 3.3125 12.4375 C2 11 2 11 2 9 C1.34 9 0.68 9 0 9 C0 6.03 0 3.06 0 0 Z " fill="#172150" transform="translate(430,167)"/>
<path d="M0 0 C0 0.99 0 1.98 0 3 C-0.66 3 -1.32 3 -2 3 C-2 5.31 -2 7.62 -2 10 C-0.68 10 0.64 10 2 10 C1.88512252 11.58409994 1.75765492 13.16728963 1.625 14.75 C1.55539062 15.63171875 1.48578125 16.5134375 1.4140625 17.421875 C1.00149945 19.99066382 0.28839043 21.75841015 -1 24 C-3.93774463 24.05390357 -6.87450232 24.0936255 -9.8125 24.125 C-10.64587891 24.14175781 -11.47925781 24.15851563 -12.33789062 24.17578125 C-13.14033203 24.18222656 -13.94277344 24.18867187 -14.76953125 24.1953125 C-15.87711792 24.21102295 -15.87711792 24.21102295 -17.00708008 24.22705078 C-19 24 -19 24 -22 22 C-22.94921875 19.6171875 -22.94921875 19.6171875 -23.6875 16.875 C-23.93886719 15.96492188 -24.19023437 15.05484375 -24.44921875 14.1171875 C-24.63097656 13.41851562 -24.81273437 12.71984375 -25 12 C-26.65 12 -28.3 12 -30 12 C-30.25048636 14.87450983 -30.25048636 14.87450983 -30 18 C-29.0206121 19.02019573 -28.02104551 20.02149805 -27 21 C-26.8125 23.6875 -26.8125 23.6875 -27 26 C-27.928125 26.12375 -27.928125 26.12375 -28.875 26.25 C-31.11873391 26.77571142 -31.11873391 26.77571142 -31.91015625 28.66796875 C-32.26980469 29.43753906 -32.62945312 30.20710938 -33 31 C-39.86280554 43.2608876 -39.86280554 43.2608876 -45.5625 45.125 C-47.03478605 45.44961863 -48.51447226 45.74268537 -50 46 C-51.35814027 46.38197695 -52.71282532 46.77661114 -54.0625 47.1875 C-55.031875 47.455625 -56.00125 47.72375 -57 48 C-56.43968727 50.93638223 -56.43968727 50.93638223 -55 54 C-52.13343033 55.68331939 -52.13343033 55.68331939 -49 57 C-46.82993104 58.93546691 -45.29732144 60.40535711 -44 63 C-44 64.98 -44 66.96 -44 69 C-48.62 68.34 -53.24 67.68 -58 67 C-58.32613281 65.41832031 -58.65226562 63.83664063 -58.98828125 62.20703125 C-59.42931674 60.07544409 -59.87074856 57.9439389 -60.3125 55.8125 C-60.5396167 54.71655518 -60.7667334 53.62061035 -61.00073242 52.49145508 C-62.40904882 45.73223725 -63.8811335 39.0004424 -65.51953125 32.29296875 C-66 30 -66 30 -66 27 C-65.01 27 -64.02 27 -63 27 C-62.690625 28.11375 -62.38125 29.2275 -62.0625 30.375 C-61.01926645 32.817452 -60.46134099 33.77715665 -58.04296875 34.9453125 C-53.10972153 36.1387045 -48.93724525 36.05047771 -44 35 C-43.853908 28.74010197 -43.853908 28.74010197 -46.40234375 23.29296875 C-47.88958986 22.13466648 -49.44178584 21.06091177 -51 20 C-51 19.34 -51 18.68 -51 18 C-51.8971875 17.9071875 -51.8971875 17.9071875 -52.8125 17.8125 C-55.92266847 16.65729457 -56.60417708 14.93122813 -58 12 C-58 11.01 -58 10.02 -58 9 C-56.75863281 8.93941406 -55.51726562 8.87882812 -54.23828125 8.81640625 C-52.59634423 8.73196377 -50.95441768 8.64731764 -49.3125 8.5625 C-48.49587891 8.52318359 -47.67925781 8.48386719 -46.83789062 8.44335938 C-39.93112458 8.55539642 -39.93112458 8.55539642 -34 6 C-31.66702567 5.95907063 -29.33294775 5.95758277 -27 6 C-26.34 7.32 -25.68 8.64 -25 10 C-24.34 10 -23.68 10 -23 10 C-19 14.47058824 -19 14.47058824 -19 17 C-16.69 17.33 -14.38 17.66 -12 18 C-10.82335129 14.47005387 -10.80149397 11.70544587 -11 8 C-11.66 7.01 -12.32 6.02 -13 5 C-13 4.01 -13 3.02 -13 2 C-11.58461283 1.66127487 -10.16762037 1.32925376 -8.75 1 C-7.96109375 0.814375 -7.1721875 0.62875 -6.359375 0.4375 C-4 0 -4 0 0 0 Z " fill="#172150" transform="translate(428,103)"/>
<path d="M0 0 C1.17949219 0.2475 1.17949219 0.2475 2.3828125 0.5 C3.18460938 0.70625 3.98640625 0.9125 4.8125 1.125 C5.93591797 1.40730469 5.93591797 1.40730469 7.08203125 1.6953125 C9.48585789 3.33050211 10.04386987 4.9063363 10.69311523 7.6953125 C11.36663594 12.75341548 11.20025987 17.84588 11.125 22.9375 C11.11597656 24.09830078 11.10695312 25.25910156 11.09765625 26.45507812 C11.07421162 29.30360108 11.04139522 32.15169078 11 35 C9.68 35.66 8.36 36.32 7 37 C8.32 37.33 9.64 37.66 11 38 C11 45.92 11 53.84 11 62 C10.34 62 9.68 62 9 62 C9 61.34 9 60.68 9 60 C8.34 60 7.68 60 7 60 C7 59.34 7 58.68 7 58 C6.36191406 57.86722656 5.72382812 57.73445313 5.06640625 57.59765625 C4.24011719 57.42105469 3.41382812 57.24445313 2.5625 57.0625 C1.73878906 56.88847656 0.91507813 56.71445312 0.06640625 56.53515625 C-2 56 -2 56 -3 55 C-3.24661958 50.06760838 -3.25068913 46.50137826 -1 42 C0.32 42 1.64 42 3 42 C2.5359375 40.6078125 2.5359375 40.6078125 2.0625 39.1875 C1.375 37.125 0.6875 35.0625 0 33 C-0.64066406 32.95101562 -1.28132813 32.90203125 -1.94140625 32.8515625 C-7.21196085 32.3959855 -11.96986288 31.6402621 -17 30 C-17 30.99 -17 31.98 -17 33 C-16.34 33 -15.68 33 -15 33 C-14.67 34.65 -14.34 36.3 -14 38 C-13.34 38 -12.68 38 -12 38 C-12 38.66 -12 39.32 -12 40 C-14.70879335 41.35439668 -17.00933268 41.06501451 -20 41 C-20 40.01 -20 39.02 -20 38 C-20.66 38 -21.32 38 -22 38 C-22.64897617 27.56830891 -20.99799949 17.23999905 -16 8 C-15.34 8 -14.68 8 -14 8 C-13.67 6.68 -13.34 5.36 -13 4 C-12.34 4 -11.68 4 -11 4 C-11 3.34 -11 2.68 -11 2 C-7.49347827 -1.78704347 -4.78602122 -1.0984311 0 0 Z " fill="#172150" transform="translate(98,215)"/>
<path d="M0 0 C0.99 0.33 1.98 0.66 3 1 C4.02734375 3.80859375 4.02734375 3.80859375 4.9375 7.4375 C6.54388843 13.52019426 8.57929991 19.20121682 11 25 C12.26785118 28.0971896 13.51217747 31.203204 14.75 34.3125 C15.06815674 35.09012695 15.38631348 35.86775391 15.71411133 36.66894531 C17.26141585 40.56948607 18.44400134 43.72221789 18 48 C18.66 48 19.32 48 20 48 C20.83764268 49.95649397 21.66999059 51.91525556 22.5 53.875 C22.9640625 54.96554687 23.428125 56.05609375 23.90625 57.1796875 C25 60 25 60 25 62 C18.64416673 61.13329546 12.32448699 60.06965872 6 59 C6 58.34 6 57.68 6 57 C5.443125 56.896875 4.88625 56.79375 4.3125 56.6875 C1.5230899 55.85821592 -0.6139064 54.65700944 -3 53 C-3 52.34 -3 51.68 -3 51 C-3.66 51 -4.32 51 -5 51 C-8.98928225 41.80730612 -9.31056885 33.40147456 -8.19140625 23.52734375 C-7.93741824 20.17366536 -8.34249012 17.28754939 -9 14 C-10.65 13.67 -12.3 13.34 -14 13 C-14 12.34 -14 11.68 -14 11 C-14.99 11 -15.98 11 -17 11 C-18.6875 9.75 -18.6875 9.75 -20 8 C-20 6.68 -20 5.36 -20 4 C-14.25 4.875 -14.25 4.875 -12 6 C-12 6.66 -12 7.32 -12 8 C-6.14200628 7.50498303 -6.14200628 7.50498303 -1 5 C-0.18828772 2.44480079 -0.18828772 2.44480079 0 0 Z " fill="#172150" transform="translate(236,432)"/>
<path d="M0 0 C0.66 0 1.32 0 2 0 C2.66 3.3 3.32 6.6 4 10 C4.66 10 5.32 10 6 10 C7.47265625 11.390625 7.47265625 11.390625 9.0625 13.25 C9.58972656 13.85328125 10.11695313 14.4565625 10.66015625 15.078125 C12.05446823 17.07812935 12.57323058 18.61852126 13 21 C10 23 10 23 6.875 23.3125 C2.52740886 24.08384681 -0.27028308 25.64931805 -3.984375 27.94140625 C-6 29 -6 29 -9 29 C-9 29.66 -9 30.32 -9 31 C-10.32 31.33 -11.64 31.66 -13 32 C-13 33.98 -13 35.96 -13 38 C-12.34 38 -11.68 38 -11 38 C-11 38.66 -11 39.32 -11 40 C-10.14277344 40.03738281 -9.28554688 40.07476562 -8.40234375 40.11328125 C-1.94801388 40.48438703 3.26995925 40.93509448 9 44 C8.05543653 46.34058602 7.4936505 47.71228187 5.27587891 49.00488281 C4.59960449 49.23530273 3.92333008 49.46572266 3.2265625 49.703125 C2.1128125 50.08984375 2.1128125 50.08984375 0.9765625 50.484375 C0.20054687 50.73703125 -0.57546875 50.9896875 -1.375 51.25 C-2.14328125 51.518125 -2.9115625 51.78625 -3.703125 52.0625 C-7.42903347 53.32595685 -9.98622088 54 -14 54 C-14.19672365 52.27185839 -14.38196799 50.54240803 -14.5625 48.8125 C-14.66691406 47.84957031 -14.77132813 46.88664062 -14.87890625 45.89453125 C-14.99758751 43.05766623 -14.67765639 40.74576329 -14 38 C-14.66 38 -15.32 38 -16 38 C-16.66 34.37 -17.32 30.74 -18 27 C-14.7 26.67 -11.4 26.34 -8 26 C-8.185625 23.89625 -8.185625 23.89625 -8.375 21.75 C-8.44460938 20.96109375 -8.51421875 20.1721875 -8.5859375 19.359375 C-8.88541588 16.97917099 -8.88541588 16.97917099 -10.0390625 14.953125 C-11 13 -11 13 -11 9 C-11.66 9 -12.32 9 -13 9 C-13 7.02 -13 5.04 -13 3 C-12.34 2.67 -11.68 2.34 -11 2 C-7.58841744 3.13719419 -6.88145399 4.04342944 -5 7 C-5 7.66 -5 8.32 -5 9 C-3.68 9.33 -2.36 9.66 -1 10 C-1.01160156 9.36191406 -1.02320313 8.72382813 -1.03515625 8.06640625 C-1.04417969 7.24011719 -1.05320312 6.41382813 -1.0625 5.5625 C-1.07410156 4.73878906 -1.08570313 3.91507813 -1.09765625 3.06640625 C-1 1 -1 1 0 0 Z " fill="#172150" transform="translate(480,158)"/>
<path d="M0 0 C0 0.99 0 1.98 0 3 C-0.66 3 -1.32 3 -2 3 C-2.33 4.98 -2.66 6.96 -3 9 C-3.66 9 -4.32 9 -5 9 C-5.0825 9.66 -5.165 10.32 -5.25 11 C-6.24759791 14.99039163 -8.07166683 18.38549643 -10 22 C-16.41481258 22.42765417 -21.88595404 20.85743168 -28 19 C-27.01 17.02 -26.02 15.04 -25 13 C-24.01 13 -23.02 13 -22 13 C-22 12.34 -22 11.68 -22 11 C-18.49325065 8.42542453 -14.72053108 6.25137258 -11 4 C-10.29101562 3.55527344 -9.58203125 3.11054687 -8.8515625 2.65234375 C-5.5242043 0.62541594 -4.01475437 0 0 0 Z " fill="#172150" transform="translate(158,73)"/>
<path d="M0 0 C0.19517554 1.93674185 0.38087873 3.87444009 0.5625 5.8125 C0.66691406 6.89144531 0.77132813 7.97039062 0.87890625 9.08203125 C1 12 1 12 0 15 C-3.63801976 16.21267325 -4.99040706 15.61906772 -8.625 14.5625 C-13.97388 13.13092628 -18.48600025 12.72430001 -24 13 C-24.33 11.68 -24.66 10.36 -25 9 C-23.92621094 8.60167969 -22.85242188 8.20335937 -21.74609375 7.79296875 C-20.30986242 7.25790218 -18.87366638 6.72274086 -17.4375 6.1875 C-16.73302734 5.92646484 -16.02855469 5.66542969 -15.30273438 5.39648438 C-11.86016096 4.11146849 -8.46025731 2.78374324 -5.09765625 1.30078125 C-2 0 -2 0 0 0 Z " fill="#172150" transform="translate(492,210)"/>
<path d="M0 0 C0.66 0 1.32 0 2 0 C2.70078445 2.55951745 3.38585196 5.12159702 4.0625 7.6875 C4.26166016 8.40873047 4.46082031 9.12996094 4.66601562 9.87304688 C5.72033808 13.92386473 6.29133534 16.8823458 5 21 C3.35 21 1.7 21 0 21 C-1.99758462 16.83836538 -2.26935897 13.40541594 -2.25 8.8125 C-2.25515625 7.58144531 -2.2603125 6.35039063 -2.265625 5.08203125 C-2 2 -2 2 0 0 Z " fill="#172150" transform="translate(409,79)"/>
<path d="M0 0 C3 0 3 0 4.625 1.3125 C8.23124192 5.73834236 7.28678289 12.00361329 6.7734375 17.3671875 C6.53918796 19.24787669 6.2727979 21.12451446 6 23 C5.01 23 4.02 23 3 23 C1.14060121 15.21930149 -0.41467342 8.01701946 0 0 Z " fill="#172150" transform="translate(118,302)"/>
<path d="M0 0 C5.16843128 1.82415221 9.58969996 4.07258995 12.875 8.5625 C14 11 14 11 14 14 C10.94736336 14.98120464 9.05263664 14.98120464 6 14 C6 13.01 6 12.02 6 11 C5.34 11 4.68 11 4 11 C3.67 9.02 3.34 7.04 3 5 C2.34 5 1.68 5 1 5 C0.67 3.35 0.34 1.7 0 0 Z " fill="#172150" transform="translate(412,58)"/>
<path d="M0 0 C3.33333333 0.66666667 6.66666667 1.33333333 10 2 C11.40185547 2.28037109 11.40185547 2.28037109 12.83203125 2.56640625 C13.54746094 2.70949219 14.26289063 2.85257812 15 3 C14.45276317 6.37462715 13.9451 8.08235 12 11 C9.5625 10.1875 9.5625 10.1875 7 9 C6.67 8.01 6.34 7.02 6 6 C5.01 5.67 4.02 5.34 3 5 C3 4.34 3 3.68 3 3 C2.01 2.67 1.02 2.34 0 2 C0 1.34 0 0.68 0 0 Z " fill="#172150" transform="translate(129,98)"/>
<path d="M0 0 C2.31 0.33 4.62 0.66 7 1 C6.67 2.65 6.34 4.3 6 6 C5.01 6 4.02 6 3 6 C3 6.66 3 7.32 3 8 C1.02 8.33 -0.96 8.66 -3 9 C-2.44271087 5.65626525 -1.64826111 2.96687001 0 0 Z " fill="#172150" transform="translate(150,103)"/>
<path d="M0 0 C2 2 2 2 2.125 4.625 C2.08375 5.40875 2.0425 6.1925 2 7 C2.99 7 3.98 7 5 7 C5.33 10.3 5.66 13.6 6 17 C5.01 17 4.02 17 3 17 C2.49622232 14.73000175 1.99709981 12.45896997 1.5 10.1875 C1.08234375 8.29064453 1.08234375 8.29064453 0.65625 6.35546875 C0 3 0 3 0 0 Z " fill="#172150" transform="translate(118,308)"/>
<path d="M0 0 C0 0.33 0 0.66 0 1 C-0.73605469 1.12117187 -1.47210938 1.24234375 -2.23046875 1.3671875 C-3.20628906 1.53476563 -4.18210938 1.70234375 -5.1875 1.875 C-6.15042969 2.03742188 -7.11335937 2.19984375 -8.10546875 2.3671875 C-11.01836544 2.91091372 -11.01836544 2.91091372 -13.67578125 4.1328125 C-16 5 -16 5 -19 4 C-12.73612853 0.48612088 -7.1033647 -0.1732528 0 0 Z " fill="#172150" transform="translate(186,131)"/>
<path d="M0 0 C0.66 0 1.32 0 2 0 C3.20272819 2.40545638 3.10071472 3.94996953 3.0625 6.625 C3.05347656 7.44226563 3.04445313 8.25953125 3.03515625 9.1015625 C3.02355469 9.72804688 3.01195313 10.35453125 3 11 C2.67 11 2.34 11 2 11 C0.80712589 7.12315913 0 4.08378077 0 0 Z " fill="#172150" transform="translate(107,277)"/>
</svg>
